# xmcd CD database file
#
# Track frame offsets:
#	150
#	16628
#	33486
#	50353
#	66578
#	90060
#	107882
#	122224
#	138622
#	154987
#	173370
#	189918
#	222132
#
# Disc length: 4089 seconds
#
# Revision: 4
# Processed by: cddbd v1.4PL0 Copyright (c) Steve Scherf et al.
# Submitted via: CDex 1.50Beta7
#
DISCID=a70ff70d
DTITLE=Mad'house - Absolutely mad
DYEAR=2002
DGENRE=Dance
TTITLE0=Like a Prayer
TTITLE1=La isla Bonita
TTITLE2=Papa don't preach
TTITLE3=Holiday
TTITLE4=Frozen
TTITLE5=Like a virgin
TTITLE6=Into the groove
TTITLE7=Be yourself
TTITLE8=Open your heart
TTITLE9=Borderline
TTITLE10=Lady of the dawn
TTITLE11=Everybody
TTITLE12=Data Track
EXTD=YEAR: 2002
EXTT0=
EXTT1=
EXTT2=
EXTT3=
EXTT4=
EXTT5=
EXTT6=
EXTT7=
EXTT8=
EXTT9=
EXTT10=
EXTT11=
EXTT12=
PLAYORDER=
